<svg xmlns="http://www.w3.org/2000/svg" viewBox="0 0 720 220" role="img" aria-labelledby="title desc">
  <title id="title">Flag ribbon UI treatment</title>
  <desc id="desc">Generic flag-like ribbons showing how country colors can frame cards without copying protected marks.</desc>
  <rect width="720" height="220" rx="32" fill="#101820"/>
  <g transform="translate(38 38)">
    <rect width="128" height="84" rx="18" fill="#ffffff"/>
    <path d="M0 0h128v28H0z" fill="#22c55e"/>
    <path d="M0 56h128v28H0z" fill="#ef4444"/>
    <circle cx="64" cy="42" r="15" fill="#facc15"/>
  </g>
  <g transform="translate(190 38)">
    <rect width="128" height="84" rx="18" fill="#f9fafb"/>
    <path d="M0 0h42v84H0z" fill="#2563eb"/>
    <path d="M86 0h42v84H86z" fill="#ef4444"/>
  </g>
  <g transform="translate(342 38)">
    <rect width="128" height="84" rx="18" fill="#facc15"/>
    <path d="M0 0h128v28H0z" fill="#0f766e"/>
    <path d="M0 56h128v28H0z" fill="#dc2626"/>
  </g>
  <g transform="translate(494 38)">
    <rect width="128" height="84" rx="18" fill="#ffffff"/>
    <path d="M0 0h128v84H0z" fill="#111827"/>
    <path d="m0 84 128-84v84z" fill="#f97316"/>
    <path d="M0 0h128L0 84z" fill="#06b6d4"/>
  </g>
  <path d="M40 160c74-28 128-28 202 0s128 28 202 0 128-28 236 0" fill="none" stroke="#ffffff" stroke-opacity=".45" stroke-width="8" stroke-linecap="round"/>
  <path d="M40 184c74-28 128-28 202 0s128 28 202 0 128-28 236 0" fill="none" stroke="#f8ff65" stroke-opacity=".75" stroke-width="6" stroke-linecap="round"/>
</svg>
